<svg xmlns="http://www.w3.org/2000/svg" viewBox="0 0 400 400" fill="none">
  <rect width="400" height="400" rx="96" fill="#0052FF"/>
  <path d="M200 108C149.254 108 108 149.254 108 200C108 250.746 149.254 292 200 292C237.882 292 270.446 268.942 284.628 236.472H200V163.528H284.628C270.446 131.058 237.882 108 200 108Z" fill="white"/>
  <path d="M284.628 236.472C298.174 220.94 306 201.294 306 180C306 158.706 298.174 139.06 284.628 123.528C271.082 107.996 253.12 98 233.333 98C213.547 98 195.584 107.996 182.038 123.528L200 163.528C204.492 158.072 211.112 154.667 218.5 154.667C229.546 154.667 238.5 163.62 238.5 174.667C238.5 185.713 229.546 194.667 218.5 194.667H200V236.472H284.628Z" fill="white" opacity="0.6"/>
</svg>