<svg xmlns="http://www.w3.org/2000/svg" width="1284" height="2778" viewBox="0 0 1284 2778" fill="none">
  <defs>
    <linearGradient id="warm" x1="0%" y1="0%" x2="100%" y2="100%"><stop offset="0%" stop-color="#c8a961"/><stop offset="100%" stop-color="#e8d5a3"/></linearGradient>
    <radialGradient id="bg" cx="50%" cy="20%" r="80%"><stop offset="0%" stop-color="#16110a"/><stop offset="100%" stop-color="#070707"/></radialGradient>
    <linearGradient id="ok" x1="0%" y1="0%" x2="100%" y2="0%"><stop offset="0%" stop-color="#5fae7e"/><stop offset="100%" stop-color="#8fd0a3"/></linearGradient>
  </defs>
  <rect width="1284" height="2778" fill="url(#bg)"/>
  <g stroke="#c8a961" stroke-width="0.6" opacity="0.045"><line x1="0" y1="700" x2="1284" y2="700"/><line x1="0" y1="1400" x2="1284" y2="1400"/><line x1="0" y1="2100" x2="1284" y2="2100"/></g>

  <text x="150" y="290" fill="url(#warm)" font-family="DejaVu Sans Mono, monospace" font-size="78" font-weight="700">15 tools</text>
  <text x="150" y="360" fill="#8a8a8a" font-family="DejaVu Sans Mono, monospace" font-size="36">core checks free · premium via x402</text>

  <g font-family="DejaVu Sans Mono, monospace" font-size="40">
    <!-- free tools -->
    <text x="150" y="500" fill="#5fae7e" font-size="34">FREE — no key, no payment</text>
    <g fill="#cfcfcf">
      <text x="170" y="580">• detect_honeypot</text>
      <text x="170" y="650">• safety_score</text>
      <text x="170" y="720">• check_scam</text>
      <text x="170" y="790">• scan_approvals</text>
      <text x="170" y="860">• liquidity_lock</text>
      <text x="170" y="930">• simulate_approval</text>
      <text x="170" y="1000">• detect_clone</text>
      <text x="170" y="1070">• monitor_wallet</text>
    </g>

    <text x="150" y="1210" fill="#c8a961" font-size="34">PREMIUM — USDC pay-per-call</text>
    <g fill="#cfcfcf">
      <text x="170" y="1290">• scan_token</text>
      <text x="690" y="1290" fill="#8a8a8a" font-size="34">$0.005</text>
      <text x="170" y="1360">• consensus</text>
      <text x="690" y="1360" fill="#8a8a8a" font-size="34">$0.0075</text>
      <text x="170" y="1430">• batch_scan</text>
      <text x="690" y="1430" fill="#8a8a8a" font-size="34">$0.025</text>
      <text x="170" y="1500">• wallet_report</text>
      <text x="690" y="1500" fill="#8a8a8a" font-size="34">$0.010</text>
      <text x="170" y="1570">• deployer_check</text>
      <text x="690" y="1570" fill="#8a8a8a" font-size="34">$0.005</text>
      <text x="170" y="1640">• token_market</text>
      <text x="690" y="1640" fill="#8a8a8a" font-size="34">$0.003</text>
    </g>
  </g>

  <!-- x402 + base attribution badge -->
  <rect x="150" y="1760" width="984" height="220" rx="24" fill="#0e0e0e" stroke="#c8a961" stroke-width="1.5"/>
  <text x="200" y="1850" fill="url(#warm)" font-family="DejaVu Sans Mono, monospace" font-size="48" font-weight="700">x402 native</text>
  <text x="200" y="1910" fill="#9a9a9a" font-family="DejaVu Sans Mono, monospace" font-size="34">pay in USDC on Base — no account.</text>
  <text x="200" y="1955" fill="#9a9a9a" font-family="DejaVu Sans Mono, monospace" font-size="34">onchain attribution via Builder Codes.</text>

  <text x="642" y="2200" text-anchor="middle" fill="#8a8a8a" font-family="DejaVu Sans Mono, monospace" font-size="40">any AI agent can call them</text>
  <text x="642" y="2256" text-anchor="middle" fill="#8a8a8a" font-family="DejaVu Sans Mono, monospace" font-size="40">before it signs.</text>

  <text x="642" y="2520" text-anchor="middle" fill="#c8a961" font-family="DejaVu Sans Mono, monospace" font-size="46" opacity="0.9">mcp.vigil.codes</text>
  <rect x="40" y="40" width="1204" height="2698" rx="40" fill="none" stroke="#c8a961" stroke-width="1.5" opacity="0.18"/>
</svg>
