<svg xmlns="http://www.w3.org/2000/svg" viewBox="0 0 1200 630" fill="none">
  <rect width="1200" height="630" fill="#080808"/>

  <text x="80" y="68" fill="#c8a961" font-family="'Courier New', monospace" font-size="11" letter-spacing="4" opacity="0.5">VIGIL . INSTALL INTO ANY AGENT</text>
  <text x="80" y="118" fill="#d4d0c8" font-family="Georgia, serif" font-size="44">Scan before you sign.</text>
  <text x="80" y="152" fill="#6b6860" font-family="Georgia, serif" font-size="19" font-style="italic">one message installs VIGIL into your agent — keyless, read-only.</text>
  <line x1="80" y1="174" x2="340" y2="174" stroke="#c8a961" stroke-width="1" opacity="0.25"/>

  <!-- install command box -->
  <text x="80" y="216" fill="#6b6860" font-family="'Courier New', monospace" font-size="13" letter-spacing="3">TELL YOUR AGENT</text>
  <g transform="translate(80, 232)">
    <rect width="1040" height="64" rx="8" fill="#0c0c0c" stroke="#c8a961" stroke-width="1" opacity="0.45"/>
    <text x="26" y="40" fill="#6bbd6b" font-family="'Courier New', monospace" font-size="17">&gt; install the skill at github.com/vigilcodes/vigil-mcp</text>
  </g>

  <!-- 13 tools grid -->
  <text x="80" y="346" fill="#6b6860" font-family="'Courier New', monospace" font-size="13" letter-spacing="3">13 TOOLS . NO API KEY</text>
  <g font-family="'Courier New', monospace" font-size="14" transform="translate(80, 364)">
    <g transform="translate(0,0)">
      <rect width="336" height="40" rx="6" fill="#0e1a0e" stroke="#6bbd6b" stroke-width="1" opacity="0.9"/>
      <text x="18" y="25" fill="#6bbd6b">●</text><text x="40" y="25" fill="#d4d0c8">safety score 0-100</text>
    </g>
    <g transform="translate(352,0)">
      <rect width="336" height="40" rx="6" fill="#0e1a0e" stroke="#6bbd6b" stroke-width="1" opacity="0.9"/>
      <text x="18" y="25" fill="#6bbd6b">●</text><text x="40" y="25" fill="#d4d0c8">honeypot detector</text>
    </g>
    <g transform="translate(704,0)">
      <rect width="336" height="40" rx="6" fill="#0e1a0e" stroke="#6bbd6b" stroke-width="1" opacity="0.9"/>
      <text x="18" y="25" fill="#6bbd6b">●</text><text x="40" y="25" fill="#d4d0c8">liquidity lock</text>
    </g>
    <g transform="translate(0,48)">
      <rect width="336" height="40" rx="6" fill="#0e1a0e" stroke="#6bbd6b" stroke-width="1" opacity="0.9"/>
      <text x="18" y="25" fill="#6bbd6b">●</text><text x="40" y="25" fill="#d4d0c8">approval scanner</text>
    </g>
    <g transform="translate(352,48)">
      <rect width="336" height="40" rx="6" fill="#0e1a0e" stroke="#6bbd6b" stroke-width="1" opacity="0.9"/>
      <text x="18" y="25" fill="#6bbd6b">●</text><text x="40" y="25" fill="#d4d0c8">scam db + deployer</text>
    </g>
    <g transform="translate(704,48)">
      <rect width="336" height="40" rx="6" fill="#0c0c0c" stroke="#c8a961" stroke-width="1" opacity="0.6"/>
      <text x="18" y="25" fill="#c8a961">★</text><text x="40" y="25" fill="#c8a961">6-source consensus</text>
    </g>
  </g>

  <!-- works everywhere strip -->
  <g transform="translate(80, 488)">
    <text x="0" y="20" fill="#6b6860" font-family="'Courier New', monospace" font-size="13" letter-spacing="3">RUNS ON</text>
    <text x="0" y="48" fill="#d4d0c8" font-family="'Courier New', monospace" font-size="16">◈ Bankr   ◈ Aeon   ◈ Claude   ◈ Cursor   ◈ any MCP agent</text>
  </g>

  <line x1="80" y1="588" x2="1120" y2="588" stroke="#1e1e1c" stroke-width="1"/>
  <text x="80" y="616" fill="#6b6860" font-family="'Courier New', monospace" font-size="13">mcp.vigil.codes · keyless · read-only</text>
  <text x="1120" y="616" text-anchor="end" fill="#c8a961" font-family="'Courier New', monospace" font-size="13" opacity="0.7">vigil.codes 👁️</text>
</svg>
