<svg xmlns="http://www.w3.org/2000/svg" viewBox="0 0 1200 630" fill="none">
  <defs>
    <linearGradient id="gold" x1="0%" y1="0%" x2="100%" y2="100%">
      <stop offset="0%" stop-color="#c8a961"/>
      <stop offset="100%" stop-color="#e8d5a3"/>
    </linearGradient>
    <linearGradient id="gold-dim" x1="0%" y1="0%" x2="0%" y2="100%">
      <stop offset="0%" stop-color="#c8a961" stop-opacity="0.15"/>
      <stop offset="100%" stop-color="#c8a961" stop-opacity="0.03"/>
    </linearGradient>
    <filter id="glow">
      <feGaussianBlur stdDeviation="6" result="blur"/>
      <feMerge><feMergeNode in="blur"/><feMergeNode in="SourceGraphic"/></feMerge>
    </filter>
  </defs>

  <rect width="1200" height="630" fill="#080808"/>

  <!-- Top label -->
  <text x="80" y="55" fill="#c8a961" font-family="'DM Mono', 'Courier New', monospace" font-size="11" letter-spacing="4" opacity="0.5">VIGIL . CONSENSUS ENGINE . BASE</text>

  <!-- Title -->
  <text x="80" y="105" fill="#d4d0c8" font-family="'DM Serif Display', Georgia, serif" font-size="42">5 sources. One verdict.</text>
  <text x="80" y="148" fill="#6b6860" font-family="'DM Serif Display', Georgia, serif" font-size="22" font-style="italic">No single signal can produce a false positive.</text>
  <line x1="80" y1="170" x2="420" y2="170" stroke="#c8a961" stroke-width="1" opacity="0.2"/>

  <!-- 5 source boxes on the left -->
  <g font-family="'DM Mono', 'Courier New', monospace" font-size="13">
    <!-- Source 1: GoPlus -->
    <g transform="translate(80, 210)">
      <rect width="260" height="52" rx="6" fill="#0d0d0d" stroke="#1e1e1c" stroke-width="1"/>
      <circle cx="24" cy="26" r="5" fill="#c8a961" opacity="0.8"/>
      <text x="40" y="22" fill="#d4d0c8" font-size="14">GoPlus Security</text>
      <text x="40" y="40" fill="#6b6860" font-size="11">honeypot · tax · mint · ownership</text>
    </g>
    <!-- Source 2: Bytecode -->
    <g transform="translate(80, 275)">
      <rect width="260" height="52" rx="6" fill="#0d0d0d" stroke="#1e1e1c" stroke-width="1"/>
      <circle cx="24" cy="26" r="5" fill="#c8a961" opacity="0.8"/>
      <text x="40" y="22" fill="#d4d0c8" font-size="14">Onchain Bytecode</text>
      <text x="40" y="40" fill="#6b6860" font-size="11">opcode analysis · selfdestruct · safety</text>
    </g>
    <!-- Source 3: DexScreener -->
    <g transform="translate(80, 340)">
      <rect width="260" height="52" rx="6" fill="#0d0d0d" stroke="#1e1e1c" stroke-width="1"/>
      <circle cx="24" cy="26" r="5" fill="#c8a961" opacity="0.8"/>
      <text x="40" y="22" fill="#d4d0c8" font-size="14">DexScreener Market</text>
      <text x="40" y="40" fill="#6b6860" font-size="11">liquidity depth · pool age · volume</text>
    </g>
    <!-- Source 4: Deployer -->
    <g transform="translate(80, 405)">
      <rect width="260" height="52" rx="6" fill="#0d0d0d" stroke="#1e1e1c" stroke-width="1"/>
      <circle cx="24" cy="26" r="5" fill="#c8a961" opacity="0.8"/>
      <text x="40" y="22" fill="#d4d0c8" font-size="14">Deployer Reputation</text>
      <text x="40" y="40" fill="#6b6860" font-size="11">verification · deployer history</text>
    </g>
    <!-- Source 5: Community -->
    <g transform="translate(80, 470)">
      <rect width="260" height="52" rx="6" fill="#0d0d0d" stroke="#1e1e1c" stroke-width="1"/>
      <circle cx="24" cy="26" r="5" fill="#c8a961" opacity="0.8"/>
      <text x="40" y="22" fill="#d4d0c8" font-size="14">Community Scam DB</text>
      <text x="40" y="40" fill="#6b6860" font-size="11">crowd-sourced reports · real victims</text>
    </g>
  </g>

  <!-- Converging lines from sources to consensus box -->
  <g stroke="#c8a961" stroke-width="1" opacity="0.2">
    <line x1="340" y1="236" x2="580" y2="310"/>
    <line x1="340" y1="301" x2="580" y2="310"/>
    <line x1="340" y1="366" x2="580" y2="310"/>
    <line x1="340" y1="431" x2="580" y2="310"/>
    <line x1="340" y1="496" x2="580" y2="310"/>
  </g>

  <!-- Consensus Engine center box -->
  <g transform="translate(580, 240)">
    <rect width="200" height="140" rx="10" fill="url(#gold-dim)" stroke="#c8a961" stroke-width="1.5" filter="url(#glow)"/>
    <text x="100" y="50" text-anchor="middle" fill="#c8a961" font-family="'DM Mono', 'Courier New', monospace" font-size="11" letter-spacing="3">CONSENSUS</text>
    <text x="100" y="75" text-anchor="middle" fill="#c8a961" font-family="'DM Mono', 'Courier New', monospace" font-size="11" letter-spacing="3">ENGINE</text>
    <line x1="40" y1="90" x2="160" y2="90" stroke="#c8a961" stroke-width="0.5" opacity="0.3"/>
    <text x="100" y="115" text-anchor="middle" fill="#d4d0c8" font-family="'DM Serif Display', Georgia, serif" font-size="16">majority vote</text>
  </g>

  <!-- Arrow from consensus to verdict -->
  <g stroke="#c8a961" stroke-width="1.5" opacity="0.4">
    <line x1="780" y1="310" x2="840" y2="310"/>
    <polygon points="840,304 854,310 840,316" fill="#c8a961" opacity="0.4"/>
  </g>

  <!-- Verdict box -->
  <g transform="translate(860, 240)">
    <rect width="260" height="140" rx="10" fill="#0d0d0d" stroke="#c8a961" stroke-width="1"/>
    <text x="130" y="35" text-anchor="middle" fill="#c8a961" font-family="'DM Mono', 'Courier New', monospace" font-size="11" letter-spacing="3">VERDICT</text>
    <line x1="30" y1="48" x2="230" y2="48" stroke="#1e1e1c" stroke-width="1"/>

    <!-- Verdict levels -->
    <g font-family="'DM Mono', 'Courier New', monospace" font-size="13">
      <circle cx="40" cy="72" r="4" fill="#4ade80"/>
      <text x="54" y="76" fill="#d4d0c8">safe — majority vote green</text>

      <circle cx="40" cy="98" r="4" fill="#fbbf24"/>
      <text x="54" y="102" fill="#d4d0c8">medium — mixed signals</text>

      <circle cx="40" cy="124" r="4" fill="#ef4444"/>
      <text x="54" y="128" fill="#d4d0c8">critical — multi-source agree</text>
    </g>
  </g>

  <!-- Bottom bar -->
  <line x1="80" y1="555" x2="1120" y2="555" stroke="#1e1e1c" stroke-width="1"/>
  <text x="80" y="590" fill="#6b6860" font-family="'DM Mono', 'Courier New', monospace" font-size="13">consensus = low false positives · 5 independent sources must agree</text>
  <text x="1120" y="590" text-anchor="end" fill="#c8a961" font-family="'DM Mono', 'Courier New', monospace" font-size="13" opacity="0.7">mcp.vigil.codes</text>
</svg>