<svg xmlns="http://www.w3.org/2000/svg" viewBox="0 0 1200 630" fill="none">
  <defs>
    <linearGradient id="gold" x1="0%" y1="0%" x2="100%" y2="100%">
      <stop offset="0%" stop-color="#c8a961"/>
      <stop offset="100%" stop-color="#e8d5a3"/>
    </linearGradient>
  </defs>

  <rect width="1200" height="630" fill="#080808"/>

  <text x="80" y="68" fill="#c8a961" font-family="'Courier New', monospace" font-size="11" letter-spacing="4" opacity="0.5">VIGIL SECURITY REPORT . BASE</text>
  <text x="80" y="120" fill="#d4d0c8" font-family="Georgia, serif" font-size="44">$VIGIL — verified safe</text>
  <line x1="80" y1="142" x2="360" y2="142" stroke="#c8a961" stroke-width="1" opacity="0.25"/>

  <g transform="translate(80, 175)">
    <rect width="300" height="120" rx="8" fill="#c8a961" opacity="0.06"/>
    <rect width="300" height="120" rx="8" fill="none" stroke="#c8a961" stroke-width="1" opacity="0.35"/>
    <text x="30" y="52" fill="#6b6860" font-family="'Courier New', monospace" font-size="13" letter-spacing="2">SAFETY SCORE</text>
    <text x="30" y="100" fill="url(#gold)" font-family="Georgia, serif" font-size="54">83<tspan font-size="26" fill="#6b6860">/100</tspan></text>
    <text x="210" y="100" fill="#6bbd6b" font-family="'Courier New', monospace" font-size="16">LOW RISK</text>
  </g>

  <g transform="translate(430, 180)" font-family="'Courier New', monospace" font-size="17">
    <g stroke="#6bbd6b" stroke-width="2.4" fill="none" stroke-linecap="round" stroke-linejoin="round">
      <path d="M0 -5 L5 1 L14 -10"/>
      <path d="M0 29 L5 35 L14 24"/>
      <path d="M0 63 L5 69 L14 58"/>
      <path d="M0 97 L5 103 L14 92"/>
      <path d="M0 131 L5 137 L14 126"/>
    </g>
    <text x="30" y="0" fill="#d4d0c8">Not a honeypot — can buy and sell</text>
    <text x="30" y="34" fill="#d4d0c8">Buy tax 0%   .   Sell tax 0%</text>
    <text x="30" y="68" fill="#d4d0c8">Source verified on BaseScan</text>
    <text x="30" y="102" fill="#d4d0c8">Not mintable . ownership clean</text>
    <text x="30" y="136" fill="#d4d0c8">0 community scam reports</text>
  </g>

  <line x1="80" y1="350" x2="1120" y2="350" stroke="#1e1e1c" stroke-width="1"/>
  <g font-family="'Courier New', monospace">
    <text x="80" y="395" fill="#6b6860" font-size="12">LIQUIDITY</text>
    <text x="80" y="425" fill="#d4d0c8" font-size="22">~$46K</text>
    <text x="330" y="395" fill="#6b6860" font-size="12">24H VOLUME</text>
    <text x="330" y="425" fill="#d4d0c8" font-size="22">~$212K</text>
    <text x="600" y="395" fill="#6b6860" font-size="12">HOLDERS</text>
    <text x="600" y="425" fill="#d4d0c8" font-size="22">160</text>
    <text x="820" y="395" fill="#6b6860" font-size="12">DATA SOURCE</text>
    <text x="820" y="425" fill="#d4d0c8" font-size="22">GoPlus + RPC</text>
  </g>

  <line x1="80" y1="470" x2="1120" y2="470" stroke="#1e1e1c" stroke-width="1"/>
  <text x="80" y="510" fill="#6b6860" font-family="'Courier New', monospace" font-size="12">CONTRACT</text>
  <text x="80" y="538" fill="#c8a961" font-family="'Courier New', monospace" font-size="17" opacity="0.85">0xC751afAdD6fde251Ac624A279ECB9ac85AA27bA3</text>

  <g font-family="'Courier New', monospace" font-size="12">
    <rect x="80" y="565" width="90" height="28" rx="4" fill="none" stroke="#c8a961" stroke-width="1" opacity="0.3"/>
    <text x="125" y="584" text-anchor="middle" fill="#c8a961" opacity="0.6">MCP</text>
    <rect x="186" y="565" width="100" height="28" rx="4" fill="none" stroke="#c8a961" stroke-width="1" opacity="0.3"/>
    <text x="236" y="584" text-anchor="middle" fill="#c8a961" opacity="0.6">Base L2</text>
  </g>
  <text x="1120" y="586" text-anchor="end" fill="#c8a961" font-family="'Courier New', monospace" font-size="13" opacity="0.7">vigil.codes</text>
</svg>
